<mxfile host="Electron" modified="2023-12-19T07:43:41.557Z" agent="Mozilla/5.0 (Windows NT 10.0; Win64; x64) AppleWebKit/537.36 (KHTML, like Gecko) draw.io/21.6.8 Chrome/114.0.5735.289 Electron/25.5.0 Safari/537.36" etag="K-1ovJtW5ztzfiCeJP0E" version="21.6.8" type="device">
  <diagram name="第 1 页" id="F6a0tBnBF_XgZ-r_0fln">
    <mxGraphModel dx="781" dy="552" grid="1" gridSize="10" guides="1" tooltips="1" connect="1" arrows="1" fold="1" page="1" pageScale="1" pageWidth="1169" pageHeight="827" math="0" shadow="0">
      <root>
        <mxCell id="0" />
        <mxCell id="1" parent="0" />
        <mxCell id="p1XHvSVWPeOhfLxqvBiO-1" value="train" style="rounded=0;whiteSpace=wrap;html=1;" parent="1" vertex="1">
          <mxGeometry x="200" y="400" width="100" height="50" as="geometry" />
        </mxCell>
        <mxCell id="p1XHvSVWPeOhfLxqvBiO-2" value="&lt;ol&gt;&lt;li&gt;&lt;font color=&quot;#0000cc&quot;&gt;county&lt;/font&gt;&lt;/li&gt;&lt;li&gt;&lt;font color=&quot;#0000cc&quot;&gt;is_business&lt;br&gt;&lt;/font&gt;&lt;/li&gt;&lt;li&gt;&lt;font color=&quot;#0000cc&quot;&gt;product_type&lt;/font&gt;&lt;br&gt;&lt;/li&gt;&lt;li&gt;&lt;font color=&quot;#ff3333&quot;&gt;target&lt;/font&gt;&lt;br&gt;&lt;/li&gt;&lt;li&gt;&lt;font color=&quot;#0000cc&quot;&gt;is_consumption&lt;br&gt;&lt;/font&gt;&lt;/li&gt;&lt;li&gt;&lt;font color=&quot;#0000cc&quot;&gt;datetime&lt;br&gt;&lt;/font&gt;&lt;/li&gt;&lt;li&gt;&lt;font color=&quot;#0000cc&quot;&gt;data_block_id&lt;/font&gt;&lt;br&gt;&lt;/li&gt;&lt;li&gt;row_id&lt;br&gt;&lt;/li&gt;&lt;li&gt;prediction_unit_id&lt;br&gt;&lt;/li&gt;&lt;/ol&gt;" style="text;strokeColor=none;fillColor=none;html=1;whiteSpace=wrap;verticalAlign=middle;overflow=hidden;" parent="1" vertex="1">
          <mxGeometry x="290" y="335" width="170" height="180" as="geometry" />
        </mxCell>
        <mxCell id="p1XHvSVWPeOhfLxqvBiO-3" value="client" style="rounded=0;whiteSpace=wrap;html=1;" parent="1" vertex="1">
          <mxGeometry x="560" y="375" width="100" height="50" as="geometry" />
        </mxCell>
        <mxCell id="p1XHvSVWPeOhfLxqvBiO-4" value="&lt;ol&gt;&lt;li&gt;&lt;font color=&quot;#0000cc&quot;&gt;county&lt;/font&gt;&lt;/li&gt;&lt;li&gt;&lt;font color=&quot;#0000cc&quot;&gt;is_business&lt;br&gt;&lt;/font&gt;&lt;/li&gt;&lt;li&gt;&lt;font color=&quot;#0000cc&quot;&gt;product_type&lt;/font&gt;&lt;/li&gt;&lt;li&gt;&lt;font color=&quot;#ff3333&quot;&gt;eic_count&lt;br&gt;&lt;/font&gt;&lt;/li&gt;&lt;li&gt;&lt;font color=&quot;#ff3333&quot;&gt;installed_capacity&lt;/font&gt;&lt;br&gt;&lt;/li&gt;&lt;li&gt;&lt;font color=&quot;#0000cc&quot;&gt;date&lt;br&gt;&lt;/font&gt;&lt;/li&gt;&lt;li&gt;&lt;font color=&quot;#0000cc&quot;&gt;data_block_id&lt;/font&gt;&lt;br&gt;&lt;/li&gt;&lt;/ol&gt;" style="text;strokeColor=none;fillColor=none;html=1;whiteSpace=wrap;verticalAlign=middle;overflow=hidden;" parent="1" vertex="1">
          <mxGeometry x="660" y="320" width="150" height="160" as="geometry" />
        </mxCell>
        <mxCell id="p1XHvSVWPeOhfLxqvBiO-9" value="electricity_prices" style="rounded=0;whiteSpace=wrap;html=1;" parent="1" vertex="1">
          <mxGeometry x="560" y="185" width="100" height="50" as="geometry" />
        </mxCell>
        <mxCell id="p1XHvSVWPeOhfLxqvBiO-10" value="&lt;ol&gt;&lt;li&gt;&lt;font color=&quot;#0000cc&quot;&gt;forecast_date&lt;/font&gt;&lt;br&gt;&lt;/li&gt;&lt;li&gt;&lt;font color=&quot;#ff3333&quot;&gt;euros_per_mwh&lt;/font&gt;&lt;br&gt;&lt;/li&gt;&lt;li&gt;&lt;font color=&quot;#331a00&quot;&gt;origin_date&lt;/font&gt;&lt;br&gt;&lt;/li&gt;&lt;li&gt;&lt;font color=&quot;#0000cc&quot;&gt;data_block_id&lt;/font&gt;&lt;/li&gt;&lt;/ol&gt;" style="text;strokeColor=none;fillColor=none;html=1;whiteSpace=wrap;verticalAlign=middle;overflow=hidden;" parent="1" vertex="1">
          <mxGeometry x="660" y="120" width="170" height="180" as="geometry" />
        </mxCell>
        <mxCell id="p1XHvSVWPeOhfLxqvBiO-11" value="gas_prices" style="rounded=0;whiteSpace=wrap;html=1;" parent="1" vertex="1">
          <mxGeometry x="560" y="270" width="100" height="50" as="geometry" />
        </mxCell>
        <mxCell id="p1XHvSVWPeOhfLxqvBiO-12" value="&lt;ol&gt;&lt;li&gt;&lt;font color=&quot;#0000cc&quot;&gt;forecast_date&lt;/font&gt;&lt;br&gt;&lt;/li&gt;&lt;li&gt;&lt;font color=&quot;#ff3333&quot;&gt;lowest_price_per_mwh&lt;/font&gt;&lt;br&gt;&lt;/li&gt;&lt;li&gt;&lt;font color=&quot;#ff3333&quot;&gt;highest_price_per_mwh&lt;br&gt;&lt;/font&gt;&lt;/li&gt;&lt;li&gt;&lt;font color=&quot;#331a00&quot;&gt;origin_date&lt;/font&gt;&lt;br&gt;&lt;/li&gt;&lt;li&gt;&lt;font color=&quot;#0000cc&quot;&gt;data_block_id&lt;/font&gt;&lt;/li&gt;&lt;/ol&gt;" style="text;strokeColor=none;fillColor=none;html=1;whiteSpace=wrap;verticalAlign=middle;overflow=hidden;" parent="1" vertex="1">
          <mxGeometry x="660" y="205" width="170" height="180" as="geometry" />
        </mxCell>
        <mxCell id="p1XHvSVWPeOhfLxqvBiO-13" value="historical_weather" style="rounded=0;whiteSpace=wrap;html=1;" parent="1" vertex="1">
          <mxGeometry x="760" y="620" width="100" height="50" as="geometry" />
        </mxCell>
        <mxCell id="p1XHvSVWPeOhfLxqvBiO-14" value="&lt;ol&gt;&lt;li&gt;&lt;font color=&quot;#0000cc&quot;&gt;datetime&lt;br&gt;&lt;/font&gt;&lt;/li&gt;&lt;li&gt;&lt;font color=&quot;#0000cc&quot;&gt;longitude&lt;br&gt;&lt;/font&gt;&lt;/li&gt;&lt;li&gt;&lt;font color=&quot;#0000cc&quot;&gt;latitude&lt;br&gt;&lt;/font&gt;&lt;/li&gt;&lt;li&gt;&lt;font color=&quot;#0000cc&quot;&gt;data_block_id&lt;/font&gt;&lt;br&gt;&lt;/li&gt;&lt;li&gt;&lt;font color=&quot;#ff3333&quot;&gt;direct_solar_radiation&lt;/font&gt;&lt;br&gt;&lt;/li&gt;&lt;li&gt;&lt;font color=&quot;#ff3333&quot;&gt;diffuse_radiation&lt;/font&gt;&lt;/li&gt;&lt;li&gt;&lt;font color=&quot;#ff3333&quot;&gt;……&lt;/font&gt;&lt;/li&gt;&lt;/ol&gt;" style="text;strokeColor=none;fillColor=none;html=1;whiteSpace=wrap;verticalAlign=middle;overflow=hidden;" parent="1" vertex="1">
          <mxGeometry x="840" y="560" width="150" height="160" as="geometry" />
        </mxCell>
        <mxCell id="p1XHvSVWPeOhfLxqvBiO-15" value="forecast_weather" style="rounded=0;whiteSpace=wrap;html=1;" parent="1" vertex="1">
          <mxGeometry x="760" y="500" width="100" height="50" as="geometry" />
        </mxCell>
        <mxCell id="p1XHvSVWPeOhfLxqvBiO-16" value="&lt;ol&gt;&lt;li&gt;&lt;font color=&quot;#0000cc&quot;&gt;forecast_date&lt;/font&gt;&lt;br&gt;&lt;/li&gt;&lt;li style=&quot;border-color: var(--border-color);&quot;&gt;&lt;font style=&quot;border-color: var(--border-color);&quot; color=&quot;#0000cc&quot;&gt;longitude&lt;br style=&quot;border-color: var(--border-color);&quot;&gt;&lt;/font&gt;&lt;/li&gt;&lt;li style=&quot;border-color: var(--border-color);&quot;&gt;&lt;font style=&quot;border-color: var(--border-color);&quot; color=&quot;#0000cc&quot;&gt;latitude&lt;/font&gt;&lt;/li&gt;&lt;li&gt;&lt;font color=&quot;#0000cc&quot;&gt;data_block_id&lt;/font&gt;&lt;/li&gt;&lt;li style=&quot;border-color: var(--border-color);&quot;&gt;&lt;font style=&quot;border-color: var(--border-color);&quot; color=&quot;#ff3333&quot;&gt;direct_solar_radiation&lt;/font&gt;&lt;br style=&quot;border-color: var(--border-color);&quot;&gt;&lt;/li&gt;&lt;li style=&quot;border-color: var(--border-color);&quot;&gt;&lt;font style=&quot;border-color: var(--border-color);&quot; color=&quot;#ff3333&quot;&gt;diffuse_radiation&lt;/font&gt;&lt;/li&gt;&lt;li style=&quot;border-color: var(--border-color);&quot;&gt;&lt;font style=&quot;border-color: var(--border-color);&quot; color=&quot;#ff3333&quot;&gt;……&lt;/font&gt;&lt;/li&gt;&lt;/ol&gt;" style="text;strokeColor=none;fillColor=none;html=1;whiteSpace=wrap;verticalAlign=middle;overflow=hidden;" parent="1" vertex="1">
          <mxGeometry x="840" y="435" width="170" height="180" as="geometry" />
        </mxCell>
        <mxCell id="p1XHvSVWPeOhfLxqvBiO-17" value="weather_station_to_county" style="rounded=0;whiteSpace=wrap;html=1;" parent="1" vertex="1">
          <mxGeometry x="480" y="560" width="150" height="40" as="geometry" />
        </mxCell>
        <mxCell id="p1XHvSVWPeOhfLxqvBiO-18" value="&lt;div&gt;&lt;font color=&quot;#0000cc&quot;&gt;&lt;br&gt;&lt;/font&gt;&lt;/div&gt;&lt;ol&gt;&lt;li style=&quot;border-color: var(--border-color);&quot;&gt;&lt;font style=&quot;border-color: var(--border-color);&quot; color=&quot;#0000cc&quot;&gt;longitude&lt;br style=&quot;border-color: var(--border-color);&quot;&gt;&lt;/font&gt;&lt;/li&gt;&lt;li style=&quot;border-color: var(--border-color);&quot;&gt;&lt;font style=&quot;border-color: var(--border-color);&quot; color=&quot;#0000cc&quot;&gt;latitude&lt;/font&gt;&lt;/li&gt;&lt;li&gt;&lt;font color=&quot;#0000cc&quot;&gt;county&lt;/font&gt;&lt;/li&gt;&lt;/ol&gt;" style="text;strokeColor=none;fillColor=none;html=1;whiteSpace=wrap;verticalAlign=middle;overflow=hidden;" parent="1" vertex="1">
          <mxGeometry x="610" y="505" width="120" height="125" as="geometry" />
        </mxCell>
        <mxCell id="TEWTE6Q-T-oBzqzpqasL-2" value="" style="endArrow=classic;html=1;rounded=0;exitX=0;exitY=0.5;exitDx=0;exitDy=0;entryX=1;entryY=0.5;entryDx=0;entryDy=0;" parent="1" source="p1XHvSVWPeOhfLxqvBiO-9" target="p1XHvSVWPeOhfLxqvBiO-2" edge="1">
          <mxGeometry width="50" height="50" relative="1" as="geometry">
            <mxPoint x="440" y="290" as="sourcePoint" />
            <mxPoint x="490" y="240" as="targetPoint" />
          </mxGeometry>
        </mxCell>
        <mxCell id="TEWTE6Q-T-oBzqzpqasL-3" value="" style="endArrow=classic;html=1;rounded=0;exitX=0;exitY=0.5;exitDx=0;exitDy=0;entryX=1;entryY=0.5;entryDx=0;entryDy=0;" parent="1" source="p1XHvSVWPeOhfLxqvBiO-11" target="p1XHvSVWPeOhfLxqvBiO-2" edge="1">
          <mxGeometry width="50" height="50" relative="1" as="geometry">
            <mxPoint x="360" y="300" as="sourcePoint" />
            <mxPoint x="410" y="250" as="targetPoint" />
          </mxGeometry>
        </mxCell>
        <mxCell id="TEWTE6Q-T-oBzqzpqasL-6" value="" style="endArrow=classic;html=1;rounded=0;exitX=0;exitY=0.5;exitDx=0;exitDy=0;entryX=1;entryY=0.5;entryDx=0;entryDy=0;" parent="1" source="p1XHvSVWPeOhfLxqvBiO-13" target="p1XHvSVWPeOhfLxqvBiO-18" edge="1">
          <mxGeometry width="50" height="50" relative="1" as="geometry">
            <mxPoint x="710" y="530" as="sourcePoint" />
            <mxPoint x="760" y="480" as="targetPoint" />
          </mxGeometry>
        </mxCell>
        <mxCell id="TEWTE6Q-T-oBzqzpqasL-8" value="" style="endArrow=classic;html=1;rounded=0;exitX=0.5;exitY=0;exitDx=0;exitDy=0;entryX=1;entryY=0.5;entryDx=0;entryDy=0;" parent="1" source="p1XHvSVWPeOhfLxqvBiO-17" target="p1XHvSVWPeOhfLxqvBiO-2" edge="1">
          <mxGeometry width="50" height="50" relative="1" as="geometry">
            <mxPoint x="100" y="560" as="sourcePoint" />
            <mxPoint x="460" y="420" as="targetPoint" />
          </mxGeometry>
        </mxCell>
        <mxCell id="TwnRhrs1f-AQN3kvFuGi-1" value="" style="endArrow=classic;html=1;rounded=0;exitX=0;exitY=0.5;exitDx=0;exitDy=0;entryX=1;entryY=0.5;entryDx=0;entryDy=0;" edge="1" parent="1" source="p1XHvSVWPeOhfLxqvBiO-15" target="p1XHvSVWPeOhfLxqvBiO-18">
          <mxGeometry width="50" height="50" relative="1" as="geometry">
            <mxPoint x="830" y="470" as="sourcePoint" />
            <mxPoint x="880" y="420" as="targetPoint" />
          </mxGeometry>
        </mxCell>
        <mxCell id="TwnRhrs1f-AQN3kvFuGi-2" value="" style="endArrow=classic;html=1;rounded=0;exitX=0;exitY=0.5;exitDx=0;exitDy=0;entryX=1;entryY=0.5;entryDx=0;entryDy=0;" edge="1" parent="1" source="p1XHvSVWPeOhfLxqvBiO-3" target="p1XHvSVWPeOhfLxqvBiO-2">
          <mxGeometry width="50" height="50" relative="1" as="geometry">
            <mxPoint x="490" y="470" as="sourcePoint" />
            <mxPoint x="540" y="420" as="targetPoint" />
          </mxGeometry>
        </mxCell>
      </root>
    </mxGraphModel>
  </diagram>
</mxfile>
